<?xml version="1.0" standalone="no"?><!DOCTYPE svg PUBLIC "-//W3C//DTD SVG 1.1//EN" "http://www.w3.org/Graphics/SVG/1.1/DTD/svg11.dtd"><svg t="1557924313755" class="icon" style="" viewBox="0 0 1024 1024" version="1.1" xmlns="http://www.w3.org/2000/svg" p-id="3405" xmlns:xlink="http://www.w3.org/1999/xlink" width="200" height="200"><defs><style type="text/css"></style></defs><path d="M512 512m-414 0a414 414 0 1 0 828 0 414 414 0 1 0-828 0Z" fill="#F0C48A" p-id="3406"></path><path d="M722 909.8H97.2c-47.2 0-85.6-38.4-85.6-85.6V199.6C11.6 152.4 50 114 97.2 114H722c47.2 0 85.6 38.4 85.6 85.6v624.6c-0.2 47.4-38.4 85.6-85.6 85.6z" fill="#FFFFFF" p-id="3407"></path><path d="M806.6 188.2C801 146.4 765.2 114 721.8 114h-1.6v789h35.2c27.2-11.6 47.2-37 51.2-67.4V188.2z" fill="#D3E6F8" p-id="3408"></path><path d="M102.4 752.6c-3.4 0-6.6-1.4-9-4.2-4.2-5-3.4-12.4 1.4-16.6l134-112c3.4-2.8 7.8-3.4 11.8-1.8l131 52.6 120.2-157.8c2.4-3 6-4.8 9.8-4.6 3.8 0.2 7.4 2.2 9.4 5.4L650 729.2h70.4c6.4 0 11.8 5.2 11.8 11.8 0 6.4-5.2 11.8-11.8 11.8h-76.8c-4 0-7.8-2-9.8-5.4l-133.2-207-115.6 151.6c-3.2 4.2-8.8 5.8-13.8 3.8l-132.8-53.4L110 749.8c-2.2 2-5 2.8-7.6 2.8z" fill="#4C4372" p-id="3409"></path><path d="M190.940327 650.264552a50.4 50.4 0 1 0 92.151096-40.851139 50.4 50.4 0 1 0-92.151096 40.851139Z" fill="#FD919E" p-id="3410"></path><path d="M462.666022 552.353021a50.4 50.4 0 1 0 77.031504-65.013748 50.4 50.4 0 1 0-77.031504 65.013748Z" fill="#FD919E" p-id="3411"></path><path d="M722 921.6H97.2C43.6 921.6 0 878 0 824.4V199.6C0 146 43.6 102.4 97.2 102.4H722c53.6 0 97.2 43.6 97.2 97.2v624.6c0 53.8-43.6 97.4-97.2 97.4zM97.2 125.8c-40.8 0-73.8 33.2-73.8 73.8v624.6c0 40.8 33.2 73.8 73.8 73.8H722c40.8 0 73.8-33.2 73.8-73.8V199.6c0-40.8-33.2-73.8-73.8-73.8H97.2z" fill="#4C4372" p-id="3412"></path><path d="M237 692c-34.2 0-62.2-27.8-62.2-62.2s27.8-62.2 62.2-62.2 62.2 27.8 62.2 62.2-27.8 62.2-62.2 62.2z m0-100.8c-21.4 0-38.6 17.4-38.6 38.6s17.4 38.6 38.6 38.6 38.6-17.4 38.6-38.6-17.2-38.6-38.6-38.6zM501.2 582c-34.2 0-62.2-27.8-62.2-62.2s27.8-62.2 62.2-62.2c34.2 0 62.2 27.8 62.2 62.2s-28 62.2-62.2 62.2z m0-100.8c-21.4 0-38.6 17.4-38.6 38.6 0 21.4 17.4 38.6 38.6 38.6s38.6-17.4 38.6-38.6c0-21.2-17.2-38.6-38.6-38.6zM409.6 290.8H102.4c-6.4 0-11.8-5.2-11.8-11.8s5.2-11.8 11.8-11.8h307.2c6.4 0 11.8 5.2 11.8 11.8s-5.4 11.8-11.8 11.8zM409.6 378H102.4c-6.4 0-11.8-5.2-11.8-11.8 0-6.4 5.2-11.8 11.8-11.8h307.2c6.4 0 11.8 5.2 11.8 11.8 0 6.4-5.4 11.8-11.8 11.8zM299.8 465.2H102.4c-6.4 0-11.8-5.2-11.8-11.8s5.2-11.8 11.8-11.8h197.4c6.4 0 11.8 5.2 11.8 11.8s-5.2 11.8-11.8 11.8z" fill="#4C4372" p-id="3413"></path><path d="M602.6 366.2a204.8 118.2 0 1 0 409.6 0 204.8 118.2 0 1 0-409.6 0Z" fill="#FFFFFF" p-id="3414"></path><path d="M807.4 496.2c-88.2 0-170.6-47.6-215-124.2-2.2-3.6-2.2-8.2 0-11.8 44.4-76.6 126.6-124.2 215-124.2s170.6 47.6 215 124.2c2.2 3.6 2.2 8.2 0 11.8-44.2 76.6-126.6 124.2-215 124.2z m-191-130c40.8 65.8 113.4 106.6 191.2 106.6s150.2-40.6 191.2-106.6c-40.8-65.8-113.4-106.6-191.2-106.6s-150.4 40.8-191.2 106.6z" fill="#4C4372" p-id="3415"></path><path d="M807.4 366.2m-87.2 0a87.2 87.2 0 1 0 174.4 0 87.2 87.2 0 1 0-174.4 0Z" fill="#7BABF1" p-id="3416"></path><path d="M807.4 465.2c-54.6 0-99-44.4-99-99s44.4-99 99-99 99 44.4 99 99-44.4 99-99 99z m0-174.4c-41.6 0-75.4 33.8-75.4 75.4s33.8 75.4 75.4 75.4 75.4-33.8 75.4-75.4-33.6-75.4-75.4-75.4z" fill="#4C4372" p-id="3417"></path></svg>